<?xml version="1.0" standalone="no"?>
<!DOCTYPE svg PUBLIC "-//W3C//DTD SVG 20010904//EN"
        "http://www.w3.org/TR/2001/REC-SVG-20010904/DTD/svg10.dtd">
<svg version="1.0" xmlns="http://www.w3.org/2000/svg"
     width="40px" height="40px" viewBox="0 0 1024 1024"
     preserveAspectRatio="xMidYMid meet">

    <defs>
        <linearGradient id="grad1" x1="0%" y1="0%" x2="100%" y2="0%">
            <stop offset="0%" style="stop-color:#0000ff; stop-opacity:1"/>
            <stop offset="50%" style="stop-color:#8000ff; stop-opacity:1"/>
            <stop offset="100%" style="stop-color:#ff69b4; stop-opacity:1"/>
        </linearGradient>

        <mask id="logo-mask">
            <g transform="translate(0,1024) scale(0.1,-0.1)" fill="#ffffff" stroke="none">
                <path d="M3547 7440 c-131 -22 -298 -91 -401 -164 -122 -87 -231 -227 -286
-367 -57 -145 -76 -302 -79 -678 -2 -238 -13 -387 -36 -476 -35 -134 -111
-248 -201 -301 -55 -32 -154 -64 -200 -64 l-34 0 0 -169 0 -169 71 -12 c92
-16 195 -68 249 -126 46 -50 101 -160 119 -239 19 -85 31 -233 31 -400 1 -316
24 -542 71 -686 86 -264 275 -447 560 -543 99 -33 183 -46 307 -46 l102 0 0
200 0 200 -70 0 c-190 0 -350 87 -422 231 -55 109 -69 190 -78 479 -10 293
-15 355 -36 480 -53 320 -189 537 -383 611 -39 14 -43 19 -26 25 150 53 255
159 330 331 76 177 101 342 115 768 10 334 19 386 77 497 76 145 212 218 406
218 l87 0 0 205 0 205 -112 -1 c-62 -1 -135 -5 -161 -9z"/>
                <path d="M6642 6557 c-12 -13 -22 -32 -22 -43 0 -34 594 -1108 692 -1251 l29
-42 -24 -38 c-13 -21 -141 -243 -284 -493 -433 -758 -422 -737 -405 -775 18
-39 54 -47 177 -43 126 5 181 26 247 95 20 21 142 200 270 398 129 198 298
458 377 578 190 287 187 268 51 472 -37 55 -148 226 -247 380 -341 531 -449
691 -486 719 -65 50 -126 66 -245 66 -100 0 -110 -2 -130 -23z"/>
                <path d="M5215 5693 l-30 -4 0 -319 0 -320 63 0 63 0 -3 135 c-2 74 -1 135 2
135 3 0 45 -61 94 -135 l89 -135 79 0 c61 0 77 3 72 13 -4 6 -57 85 -116 175
l-109 163 82 112 c45 62 93 127 107 145 l24 32 -79 0 -80 0 -81 -127 -82 -127
0 132 0 132 -32 -2 c-18 0 -46 -3 -63 -5z"/>
                <path d="M3605 5528 c-11 -6 -30 -20 -42 -31 l-23 -20 0 26 c0 26 -2 27 -55
27 l-55 0 0 -325 0 -325 55 0 55 0 0 105 0 106 31 -23 c45 -34 125 -31 172 4
59 46 72 86 72 223 0 113 -2 123 -27 166 -40 68 -125 99 -183 67z m47 -89 c30
-16 48 -71 48 -149 0 -70 -17 -131 -40 -145 -24 -15 -72 -6 -96 16 -22 21 -24
30 -24 130 l0 107 31 26 c33 28 50 32 81 15z"/>
                <path d="M4080 5523 c-14 -9 -29 -23 -33 -30 -12 -20 -24 -15 -23 10 1 20 -4
22 -56 25 l-58 3 0 -241 0 -240 60 0 60 0 0 168 1 167 26 19 c27 20 66 25 94
12 14 -6 16 2 18 58 l2 66 -33 0 c-19 0 -45 -8 -58 -17z"/>
                <path d="M4315 5521 c-85 -38 -121 -121 -113 -259 7 -122 52 -189 142 -213 81
-22 180 11 223 74 60 88 52 285 -15 361 -47 53 -162 71 -237 37z m136 -97 c21
-23 24 -36 27 -122 3 -83 0 -102 -17 -129 -17 -27 -27 -33 -54 -33 -20 0 -41
7 -50 18 -22 24 -38 113 -31 166 9 72 14 86 34 106 27 27 62 25 91 -6z"/>
                <path d="M4875 5529 c-11 -6 -31 -21 -43 -33 l-24 -21 4 25 c3 24 0 25 -54 28
l-58 3 0 -326 0 -325 58 0 57 0 -3 105 c-2 58 -1 105 3 105 3 0 15 -9 27 -20
49 -45 146 -33 197 25 39 45 54 100 54 205 -1 101 -28 178 -76 212 -34 25
-113 34 -142 17z m69 -112 c30 -40 35 -186 9 -237 -15 -30 -24 -35 -57 -38
-29 -3 -44 2 -62 19 -22 21 -24 30 -24 130 l0 107 31 27 c40 33 75 30 103 -8z"/>
                <path d="M5755 5521 c-77 -35 -108 -96 -109 -216 -2 -164 50 -241 175 -260 45
-7 157 8 170 23 4 4 9 30 11 59 l5 51 -36 -19 c-23 -12 -56 -19 -92 -19 -52 0
-60 3 -83 31 -16 19 -26 43 -26 63 l0 32 133 -1 132 0 3 45 c4 55 -13 125 -40
163 -44 62 -162 85 -243 48z m144 -97 c12 -15 21 -41 21 -60 l0 -34 -75 0 -75
0 0 35 c0 75 86 114 129 59z"/>
                <path d="M6070 5517 c0 -7 36 -116 80 -242 44 -127 80 -233 80 -237 0 -3 -12
-20 -26 -37 -22 -26 -33 -31 -70 -31 -43 0 -44 -1 -38 -27 15 -62 23 -73 51
-73 80 0 153 53 188 137 15 35 136 433 151 496 l6 27 -61 0 -60 0 -10 -37 c-5
-21 -24 -103 -43 -182 l-33 -144 -45 181 -44 182 -63 0 c-45 0 -63 -4 -63 -13z"/>
                <path d="M6660 5225 l0 -200 103 103 102 102 -45 42 c-25 23 -71 66 -102 97
l-58 55 0 -199z"/>
            </g>
        </mask>
    </defs>

    <rect width="1024" height="1024" fill="url(#grad1)" mask="url(#logo-mask)"/>
</svg>